<mxfile host="Electron" agent="Mozilla/5.0 (Windows NT 10.0; Win64; x64) AppleWebKit/537.36 (KHTML, like Gecko) draw.io/26.1.1 Chrome/132.0.6834.210 Electron/34.3.3 Safari/537.36" version="26.1.1">
  <diagram id="C5RBs43oDa-KdzZeNtuy" name="Page-1">
    <mxGraphModel dx="1235" dy="731" grid="0" gridSize="10" guides="1" tooltips="1" connect="1" arrows="1" fold="1" page="1" pageScale="1" pageWidth="827" pageHeight="1169" math="0" shadow="0">
      <root>
        <mxCell id="WIyWlLk6GJQsqaUBKTNV-0" />
        <mxCell id="WIyWlLk6GJQsqaUBKTNV-1" parent="WIyWlLk6GJQsqaUBKTNV-0" />
        <mxCell id="Yk9p62WfzjjRIQVWxF8m-0" value="Начало" style="rounded=1;whiteSpace=wrap;html=1;fontSize=12;glass=0;strokeWidth=1;shadow=0;" parent="WIyWlLk6GJQsqaUBKTNV-1" vertex="1">
          <mxGeometry x="536.5" y="229" width="120" height="40" as="geometry" />
        </mxCell>
        <mxCell id="Yk9p62WfzjjRIQVWxF8m-4" value="" style="endArrow=none;html=1;rounded=0;entryX=0.5;entryY=1;entryDx=0;entryDy=0;exitX=0.5;exitY=0;exitDx=0;exitDy=0;" parent="WIyWlLk6GJQsqaUBKTNV-1" target="Yk9p62WfzjjRIQVWxF8m-0" edge="1">
          <mxGeometry width="50" height="50" relative="1" as="geometry">
            <mxPoint x="596.5" y="299" as="sourcePoint" />
            <mxPoint x="606.5" y="429" as="targetPoint" />
          </mxGeometry>
        </mxCell>
        <mxCell id="Yk9p62WfzjjRIQVWxF8m-5" value="Ввод&lt;div&gt;file_post&lt;/div&gt;" style="shape=parallelogram;perimeter=parallelogramPerimeter;whiteSpace=wrap;html=1;fixedSize=1;" parent="WIyWlLk6GJQsqaUBKTNV-1" vertex="1">
          <mxGeometry x="536.5" y="369" width="120" height="60" as="geometry" />
        </mxCell>
        <mxCell id="Yk9p62WfzjjRIQVWxF8m-7" value="Ввод&lt;div&gt;&lt;div&gt;file_schedule&lt;/div&gt;&lt;/div&gt;&lt;div&gt;&lt;br&gt;&lt;/div&gt;" style="shape=parallelogram;perimeter=parallelogramPerimeter;whiteSpace=wrap;html=1;fixedSize=1;" parent="WIyWlLk6GJQsqaUBKTNV-1" vertex="1">
          <mxGeometry x="536.5" y="449" width="120" height="60" as="geometry" />
        </mxCell>
        <mxCell id="Yk9p62WfzjjRIQVWxF8m-8" value="Ввод&lt;div&gt;&lt;div&gt;file_staff&lt;/div&gt;&lt;/div&gt;" style="shape=parallelogram;perimeter=parallelogramPerimeter;whiteSpace=wrap;html=1;fixedSize=1;" parent="WIyWlLk6GJQsqaUBKTNV-1" vertex="1">
          <mxGeometry x="536.5" y="529" width="120" height="60" as="geometry" />
        </mxCell>
        <mxCell id="Yk9p62WfzjjRIQVWxF8m-9" value="Ввод&lt;div&gt;name_post&lt;/div&gt;" style="shape=parallelogram;perimeter=parallelogramPerimeter;whiteSpace=wrap;html=1;fixedSize=1;" parent="WIyWlLk6GJQsqaUBKTNV-1" vertex="1">
          <mxGeometry x="536.5" y="289" width="120" height="60" as="geometry" />
        </mxCell>
        <mxCell id="Yk9p62WfzjjRIQVWxF8m-11" value="" style="endArrow=none;html=1;rounded=0;entryX=0.5;entryY=1;entryDx=0;entryDy=0;exitX=0.5;exitY=0;exitDx=0;exitDy=0;" parent="WIyWlLk6GJQsqaUBKTNV-1" source="Yk9p62WfzjjRIQVWxF8m-5" target="Yk9p62WfzjjRIQVWxF8m-9" edge="1">
          <mxGeometry width="50" height="50" relative="1" as="geometry">
            <mxPoint x="556.5" y="489" as="sourcePoint" />
            <mxPoint x="606.5" y="439" as="targetPoint" />
          </mxGeometry>
        </mxCell>
        <mxCell id="Yk9p62WfzjjRIQVWxF8m-12" value="" style="endArrow=none;html=1;rounded=0;entryX=0.5;entryY=1;entryDx=0;entryDy=0;exitX=0.5;exitY=0;exitDx=0;exitDy=0;" parent="WIyWlLk6GJQsqaUBKTNV-1" source="Yk9p62WfzjjRIQVWxF8m-7" target="Yk9p62WfzjjRIQVWxF8m-5" edge="1">
          <mxGeometry width="50" height="50" relative="1" as="geometry">
            <mxPoint x="556.5" y="489" as="sourcePoint" />
            <mxPoint x="606.5" y="439" as="targetPoint" />
          </mxGeometry>
        </mxCell>
        <mxCell id="Yk9p62WfzjjRIQVWxF8m-15" value="" style="endArrow=none;html=1;rounded=0;entryX=0.5;entryY=1;entryDx=0;entryDy=0;exitX=0.5;exitY=0;exitDx=0;exitDy=0;" parent="WIyWlLk6GJQsqaUBKTNV-1" source="Yk9p62WfzjjRIQVWxF8m-8" target="Yk9p62WfzjjRIQVWxF8m-7" edge="1">
          <mxGeometry width="50" height="50" relative="1" as="geometry">
            <mxPoint x="556.5" y="489" as="sourcePoint" />
            <mxPoint x="606.5" y="439" as="targetPoint" />
          </mxGeometry>
        </mxCell>
        <mxCell id="Yk9p62WfzjjRIQVWxF8m-16" value="Открытие file_post, file_schedule,&lt;div&gt;file_staff на чтение&lt;/div&gt;" style="rounded=0;whiteSpace=wrap;html=1;" parent="WIyWlLk6GJQsqaUBKTNV-1" vertex="1">
          <mxGeometry x="536.5" y="609" width="120" height="70" as="geometry" />
        </mxCell>
        <mxCell id="Yk9p62WfzjjRIQVWxF8m-17" value="" style="endArrow=none;html=1;rounded=0;entryX=0.5;entryY=1;entryDx=0;entryDy=0;exitX=0.5;exitY=0;exitDx=0;exitDy=0;" parent="WIyWlLk6GJQsqaUBKTNV-1" source="Yk9p62WfzjjRIQVWxF8m-16" target="Yk9p62WfzjjRIQVWxF8m-8" edge="1">
          <mxGeometry width="50" height="50" relative="1" as="geometry">
            <mxPoint x="556.5" y="589" as="sourcePoint" />
            <mxPoint x="606.5" y="539" as="targetPoint" />
          </mxGeometry>
        </mxCell>
        <mxCell id="Yk9p62WfzjjRIQVWxF8m-18" value="i = 0, len(a1)" style="shape=hexagon;perimeter=hexagonPerimeter2;whiteSpace=wrap;html=1;fixedSize=1;" parent="WIyWlLk6GJQsqaUBKTNV-1" vertex="1">
          <mxGeometry x="535" y="814" width="120" height="80" as="geometry" />
        </mxCell>
        <mxCell id="Yk9p62WfzjjRIQVWxF8m-20" value="Преобразование данных файлов в список, состоящий&amp;nbsp; из списков&lt;div&gt;a1, a2, a3 соответственно&lt;/div&gt;" style="rounded=0;whiteSpace=wrap;html=1;" parent="WIyWlLk6GJQsqaUBKTNV-1" vertex="1">
          <mxGeometry x="526.5" y="699" width="140" height="90" as="geometry" />
        </mxCell>
        <mxCell id="Yk9p62WfzjjRIQVWxF8m-21" value="" style="endArrow=none;html=1;rounded=0;entryX=0.5;entryY=1;entryDx=0;entryDy=0;exitX=0.5;exitY=0;exitDx=0;exitDy=0;" parent="WIyWlLk6GJQsqaUBKTNV-1" source="Yk9p62WfzjjRIQVWxF8m-20" target="Yk9p62WfzjjRIQVWxF8m-16" edge="1">
          <mxGeometry width="50" height="50" relative="1" as="geometry">
            <mxPoint x="556.5" y="689" as="sourcePoint" />
            <mxPoint x="606.5" y="639" as="targetPoint" />
          </mxGeometry>
        </mxCell>
        <mxCell id="Yk9p62WfzjjRIQVWxF8m-22" value="" style="endArrow=none;html=1;rounded=0;entryX=0.5;entryY=1;entryDx=0;entryDy=0;exitX=0.5;exitY=0;exitDx=0;exitDy=0;" parent="WIyWlLk6GJQsqaUBKTNV-1" target="Yk9p62WfzjjRIQVWxF8m-20" edge="1">
          <mxGeometry width="50" height="50" relative="1" as="geometry">
            <mxPoint x="596" y="814" as="sourcePoint" />
            <mxPoint x="606.5" y="739" as="targetPoint" />
          </mxGeometry>
        </mxCell>
        <mxCell id="Yk9p62WfzjjRIQVWxF8m-23" value="a1[i][1] = name_post" style="rhombus;whiteSpace=wrap;html=1;" parent="WIyWlLk6GJQsqaUBKTNV-1" vertex="1">
          <mxGeometry x="530" y="924" width="130" height="90" as="geometry" />
        </mxCell>
        <mxCell id="Yk9p62WfzjjRIQVWxF8m-24" value="" style="endArrow=none;html=1;rounded=0;entryX=0.5;entryY=1;entryDx=0;entryDy=0;exitX=0.5;exitY=0;exitDx=0;exitDy=0;" parent="WIyWlLk6GJQsqaUBKTNV-1" source="Yk9p62WfzjjRIQVWxF8m-23" target="Yk9p62WfzjjRIQVWxF8m-18" edge="1">
          <mxGeometry width="50" height="50" relative="1" as="geometry">
            <mxPoint x="555" y="1004" as="sourcePoint" />
            <mxPoint x="605" y="954" as="targetPoint" />
          </mxGeometry>
        </mxCell>
        <mxCell id="Yk9p62WfzjjRIQVWxF8m-25" value="" style="endArrow=classic;html=1;rounded=0;exitX=0;exitY=0.5;exitDx=0;exitDy=0;" parent="WIyWlLk6GJQsqaUBKTNV-1" source="Yk9p62WfzjjRIQVWxF8m-23" edge="1">
          <mxGeometry width="50" height="50" relative="1" as="geometry">
            <mxPoint x="555" y="904" as="sourcePoint" />
            <mxPoint x="465" y="969" as="targetPoint" />
          </mxGeometry>
        </mxCell>
        <mxCell id="Yk9p62WfzjjRIQVWxF8m-26" value="Да" style="text;html=1;align=center;verticalAlign=middle;whiteSpace=wrap;rounded=0;" parent="WIyWlLk6GJQsqaUBKTNV-1" vertex="1">
          <mxGeometry x="485" y="944" width="60" height="30" as="geometry" />
        </mxCell>
        <mxCell id="Yk9p62WfzjjRIQVWxF8m-27" value="Нет" style="text;html=1;align=center;verticalAlign=middle;whiteSpace=wrap;rounded=0;" parent="WIyWlLk6GJQsqaUBKTNV-1" vertex="1">
          <mxGeometry x="645" y="944" width="60" height="30" as="geometry" />
        </mxCell>
        <mxCell id="Yk9p62WfzjjRIQVWxF8m-28" value="" style="endArrow=none;html=1;rounded=0;exitX=1;exitY=0.5;exitDx=0;exitDy=0;" parent="WIyWlLk6GJQsqaUBKTNV-1" source="Yk9p62WfzjjRIQVWxF8m-23" edge="1">
          <mxGeometry width="50" height="50" relative="1" as="geometry">
            <mxPoint x="555" y="904" as="sourcePoint" />
            <mxPoint x="735" y="969" as="targetPoint" />
          </mxGeometry>
        </mxCell>
        <mxCell id="Yk9p62WfzjjRIQVWxF8m-29" value="s1 = a1[i][0]" style="rounded=0;whiteSpace=wrap;html=1;" parent="WIyWlLk6GJQsqaUBKTNV-1" vertex="1">
          <mxGeometry x="426" y="1006" width="80" height="50" as="geometry" />
        </mxCell>
        <mxCell id="Yk9p62WfzjjRIQVWxF8m-30" value="" style="endArrow=none;html=1;rounded=0;exitX=0.5;exitY=0;exitDx=0;exitDy=0;" parent="WIyWlLk6GJQsqaUBKTNV-1" source="Yk9p62WfzjjRIQVWxF8m-29" edge="1">
          <mxGeometry width="50" height="50" relative="1" as="geometry">
            <mxPoint x="466" y="1009" as="sourcePoint" />
            <mxPoint x="466" y="969" as="targetPoint" />
          </mxGeometry>
        </mxCell>
        <mxCell id="Yk9p62WfzjjRIQVWxF8m-31" value="" style="endArrow=none;html=1;rounded=0;" parent="WIyWlLk6GJQsqaUBKTNV-1" edge="1">
          <mxGeometry width="50" height="50" relative="1" as="geometry">
            <mxPoint x="735" y="1099" as="sourcePoint" />
            <mxPoint x="735" y="969" as="targetPoint" />
          </mxGeometry>
        </mxCell>
        <mxCell id="Yk9p62WfzjjRIQVWxF8m-32" value="" style="endArrow=none;html=1;rounded=0;entryX=0.5;entryY=1;entryDx=0;entryDy=0;" parent="WIyWlLk6GJQsqaUBKTNV-1" edge="1">
          <mxGeometry width="50" height="50" relative="1" as="geometry">
            <mxPoint x="466" y="1096" as="sourcePoint" />
            <mxPoint x="466" y="1058" as="targetPoint" />
          </mxGeometry>
        </mxCell>
        <mxCell id="Yk9p62WfzjjRIQVWxF8m-33" value="" style="endArrow=none;html=1;rounded=0;" parent="WIyWlLk6GJQsqaUBKTNV-1" edge="1">
          <mxGeometry width="50" height="50" relative="1" as="geometry">
            <mxPoint x="465" y="1098" as="sourcePoint" />
            <mxPoint x="735" y="1098" as="targetPoint" />
          </mxGeometry>
        </mxCell>
        <mxCell id="Yk9p62WfzjjRIQVWxF8m-34" value="" style="endArrow=none;html=1;rounded=0;" parent="WIyWlLk6GJQsqaUBKTNV-1" edge="1">
          <mxGeometry width="50" height="50" relative="1" as="geometry">
            <mxPoint x="598" y="1169" as="sourcePoint" />
            <mxPoint x="598" y="1099" as="targetPoint" />
          </mxGeometry>
        </mxCell>
        <mxCell id="Yk9p62WfzjjRIQVWxF8m-35" value="" style="endArrow=none;html=1;rounded=0;" parent="WIyWlLk6GJQsqaUBKTNV-1" edge="1">
          <mxGeometry width="50" height="50" relative="1" as="geometry">
            <mxPoint x="398" y="1168" as="sourcePoint" />
            <mxPoint x="598" y="1168" as="targetPoint" />
          </mxGeometry>
        </mxCell>
        <mxCell id="Yk9p62WfzjjRIQVWxF8m-36" value="" style="endArrow=none;html=1;rounded=0;" parent="WIyWlLk6GJQsqaUBKTNV-1" edge="1">
          <mxGeometry width="50" height="50" relative="1" as="geometry">
            <mxPoint x="395" y="1169" as="sourcePoint" />
            <mxPoint x="395" y="854" as="targetPoint" />
          </mxGeometry>
        </mxCell>
        <mxCell id="Yk9p62WfzjjRIQVWxF8m-37" value="" style="endArrow=none;html=1;rounded=0;entryX=0;entryY=0.5;entryDx=0;entryDy=0;" parent="WIyWlLk6GJQsqaUBKTNV-1" target="Yk9p62WfzjjRIQVWxF8m-18" edge="1">
          <mxGeometry width="50" height="50" relative="1" as="geometry">
            <mxPoint x="395" y="854" as="sourcePoint" />
            <mxPoint x="605" y="954" as="targetPoint" />
          </mxGeometry>
        </mxCell>
        <mxCell id="Yk9p62WfzjjRIQVWxF8m-38" value="" style="endArrow=classic;html=1;rounded=0;" parent="WIyWlLk6GJQsqaUBKTNV-1" edge="1">
          <mxGeometry width="50" height="50" relative="1" as="geometry">
            <mxPoint x="708" y="1098" as="sourcePoint" />
            <mxPoint x="598" y="1098" as="targetPoint" />
          </mxGeometry>
        </mxCell>
        <mxCell id="Yk9p62WfzjjRIQVWxF8m-39" value="" style="endArrow=classic;html=1;rounded=0;" parent="WIyWlLk6GJQsqaUBKTNV-1" edge="1">
          <mxGeometry width="50" height="50" relative="1" as="geometry">
            <mxPoint x="527" y="1168" as="sourcePoint" />
            <mxPoint x="397" y="1168" as="targetPoint" />
          </mxGeometry>
        </mxCell>
        <mxCell id="Yk9p62WfzjjRIQVWxF8m-40" value="" style="endArrow=classic;html=1;rounded=0;" parent="WIyWlLk6GJQsqaUBKTNV-1" edge="1">
          <mxGeometry width="50" height="50" relative="1" as="geometry">
            <mxPoint x="395" y="944" as="sourcePoint" />
            <mxPoint x="395" y="854" as="targetPoint" />
          </mxGeometry>
        </mxCell>
        <mxCell id="Yk9p62WfzjjRIQVWxF8m-42" value="" style="endArrow=none;html=1;rounded=0;exitX=1;exitY=0.5;exitDx=0;exitDy=0;" parent="WIyWlLk6GJQsqaUBKTNV-1" source="Yk9p62WfzjjRIQVWxF8m-18" edge="1">
          <mxGeometry width="50" height="50" relative="1" as="geometry">
            <mxPoint x="555" y="1004" as="sourcePoint" />
            <mxPoint x="785" y="854" as="targetPoint" />
          </mxGeometry>
        </mxCell>
        <mxCell id="Yk9p62WfzjjRIQVWxF8m-43" value="" style="endArrow=none;html=1;rounded=0;" parent="WIyWlLk6GJQsqaUBKTNV-1" edge="1">
          <mxGeometry width="50" height="50" relative="1" as="geometry">
            <mxPoint x="785" y="1224" as="sourcePoint" />
            <mxPoint x="785" y="854" as="targetPoint" />
          </mxGeometry>
        </mxCell>
        <mxCell id="Yk9p62WfzjjRIQVWxF8m-44" value="" style="endArrow=none;html=1;rounded=0;" parent="WIyWlLk6GJQsqaUBKTNV-1" edge="1">
          <mxGeometry width="50" height="50" relative="1" as="geometry">
            <mxPoint x="685" y="1224" as="sourcePoint" />
            <mxPoint x="785" y="1224" as="targetPoint" />
          </mxGeometry>
        </mxCell>
        <mxCell id="Yk9p62WfzjjRIQVWxF8m-45" value="" style="endArrow=classic;html=1;rounded=0;" parent="WIyWlLk6GJQsqaUBKTNV-1" edge="1">
          <mxGeometry width="50" height="50" relative="1" as="geometry">
            <mxPoint x="705" y="1224" as="sourcePoint" />
            <mxPoint x="595" y="1224" as="targetPoint" />
          </mxGeometry>
        </mxCell>
        <mxCell id="Yk9p62WfzjjRIQVWxF8m-46" value="" style="endArrow=none;html=1;rounded=0;" parent="WIyWlLk6GJQsqaUBKTNV-1" edge="1" source="_wDK1iYwMhuGm5sT3Ww--0">
          <mxGeometry width="50" height="50" relative="1" as="geometry">
            <mxPoint x="595" y="1262" as="sourcePoint" />
            <mxPoint x="595" y="1224" as="targetPoint" />
          </mxGeometry>
        </mxCell>
        <mxCell id="Yk9p62WfzjjRIQVWxF8m-47" value="i = 0, len(a2)" style="shape=hexagon;perimeter=hexagonPerimeter2;whiteSpace=wrap;html=1;fixedSize=1;" parent="WIyWlLk6GJQsqaUBKTNV-1" vertex="1">
          <mxGeometry x="534.5" y="1507" width="120" height="80" as="geometry" />
        </mxCell>
        <mxCell id="Yk9p62WfzjjRIQVWxF8m-49" value="a2[i][2] = s1" style="rhombus;whiteSpace=wrap;html=1;" parent="WIyWlLk6GJQsqaUBKTNV-1" vertex="1">
          <mxGeometry x="534.5" y="1617" width="120" height="90" as="geometry" />
        </mxCell>
        <mxCell id="Yk9p62WfzjjRIQVWxF8m-50" value="" style="endArrow=none;html=1;rounded=0;entryX=0.5;entryY=1;entryDx=0;entryDy=0;exitX=0.5;exitY=0;exitDx=0;exitDy=0;" parent="WIyWlLk6GJQsqaUBKTNV-1" source="Yk9p62WfzjjRIQVWxF8m-49" target="Yk9p62WfzjjRIQVWxF8m-47" edge="1">
          <mxGeometry width="50" height="50" relative="1" as="geometry">
            <mxPoint x="554.5" y="1697" as="sourcePoint" />
            <mxPoint x="604.5" y="1647" as="targetPoint" />
          </mxGeometry>
        </mxCell>
        <mxCell id="Yk9p62WfzjjRIQVWxF8m-51" value="" style="endArrow=classic;html=1;rounded=0;exitX=0;exitY=0.5;exitDx=0;exitDy=0;" parent="WIyWlLk6GJQsqaUBKTNV-1" source="Yk9p62WfzjjRIQVWxF8m-49" edge="1">
          <mxGeometry width="50" height="50" relative="1" as="geometry">
            <mxPoint x="554.5" y="1597" as="sourcePoint" />
            <mxPoint x="464.5" y="1662" as="targetPoint" />
          </mxGeometry>
        </mxCell>
        <mxCell id="Yk9p62WfzjjRIQVWxF8m-52" value="Да" style="text;html=1;align=center;verticalAlign=middle;whiteSpace=wrap;rounded=0;" parent="WIyWlLk6GJQsqaUBKTNV-1" vertex="1">
          <mxGeometry x="484.5" y="1637" width="60" height="30" as="geometry" />
        </mxCell>
        <mxCell id="Yk9p62WfzjjRIQVWxF8m-53" value="Нет" style="text;html=1;align=center;verticalAlign=middle;whiteSpace=wrap;rounded=0;" parent="WIyWlLk6GJQsqaUBKTNV-1" vertex="1">
          <mxGeometry x="644.5" y="1637" width="60" height="30" as="geometry" />
        </mxCell>
        <mxCell id="Yk9p62WfzjjRIQVWxF8m-54" value="" style="endArrow=none;html=1;rounded=0;exitX=1;exitY=0.5;exitDx=0;exitDy=0;" parent="WIyWlLk6GJQsqaUBKTNV-1" source="Yk9p62WfzjjRIQVWxF8m-49" edge="1">
          <mxGeometry width="50" height="50" relative="1" as="geometry">
            <mxPoint x="554.5" y="1597" as="sourcePoint" />
            <mxPoint x="734.5" y="1662" as="targetPoint" />
          </mxGeometry>
        </mxCell>
        <mxCell id="Yk9p62WfzjjRIQVWxF8m-55" value="s2 = a[i][0]&lt;div&gt;k = a[i][3]&lt;/div&gt;" style="rounded=0;whiteSpace=wrap;html=1;" parent="WIyWlLk6GJQsqaUBKTNV-1" vertex="1">
          <mxGeometry x="425.5" y="1699" width="80" height="50" as="geometry" />
        </mxCell>
        <mxCell id="Yk9p62WfzjjRIQVWxF8m-56" value="" style="endArrow=none;html=1;rounded=0;exitX=0.5;exitY=0;exitDx=0;exitDy=0;" parent="WIyWlLk6GJQsqaUBKTNV-1" source="Yk9p62WfzjjRIQVWxF8m-55" edge="1">
          <mxGeometry width="50" height="50" relative="1" as="geometry">
            <mxPoint x="465.5" y="1702" as="sourcePoint" />
            <mxPoint x="465.5" y="1662" as="targetPoint" />
          </mxGeometry>
        </mxCell>
        <mxCell id="Yk9p62WfzjjRIQVWxF8m-57" value="" style="endArrow=none;html=1;rounded=0;" parent="WIyWlLk6GJQsqaUBKTNV-1" edge="1">
          <mxGeometry width="50" height="50" relative="1" as="geometry">
            <mxPoint x="734.5" y="1792" as="sourcePoint" />
            <mxPoint x="734.5" y="1662" as="targetPoint" />
          </mxGeometry>
        </mxCell>
        <mxCell id="Yk9p62WfzjjRIQVWxF8m-58" value="" style="endArrow=none;html=1;rounded=0;entryX=0.5;entryY=1;entryDx=0;entryDy=0;" parent="WIyWlLk6GJQsqaUBKTNV-1" edge="1">
          <mxGeometry width="50" height="50" relative="1" as="geometry">
            <mxPoint x="465.5" y="1789" as="sourcePoint" />
            <mxPoint x="465.5" y="1751" as="targetPoint" />
          </mxGeometry>
        </mxCell>
        <mxCell id="Yk9p62WfzjjRIQVWxF8m-59" value="" style="endArrow=none;html=1;rounded=0;" parent="WIyWlLk6GJQsqaUBKTNV-1" edge="1">
          <mxGeometry width="50" height="50" relative="1" as="geometry">
            <mxPoint x="464.5" y="1791" as="sourcePoint" />
            <mxPoint x="734.5" y="1791" as="targetPoint" />
          </mxGeometry>
        </mxCell>
        <mxCell id="Yk9p62WfzjjRIQVWxF8m-60" value="" style="endArrow=none;html=1;rounded=0;" parent="WIyWlLk6GJQsqaUBKTNV-1" edge="1">
          <mxGeometry width="50" height="50" relative="1" as="geometry">
            <mxPoint x="597.5" y="1862" as="sourcePoint" />
            <mxPoint x="597.5" y="1792" as="targetPoint" />
          </mxGeometry>
        </mxCell>
        <mxCell id="Yk9p62WfzjjRIQVWxF8m-61" value="" style="endArrow=none;html=1;rounded=0;" parent="WIyWlLk6GJQsqaUBKTNV-1" edge="1">
          <mxGeometry width="50" height="50" relative="1" as="geometry">
            <mxPoint x="397.5" y="1861" as="sourcePoint" />
            <mxPoint x="597.5" y="1861" as="targetPoint" />
          </mxGeometry>
        </mxCell>
        <mxCell id="Yk9p62WfzjjRIQVWxF8m-62" value="" style="endArrow=none;html=1;rounded=0;" parent="WIyWlLk6GJQsqaUBKTNV-1" edge="1">
          <mxGeometry width="50" height="50" relative="1" as="geometry">
            <mxPoint x="397.5" y="1862" as="sourcePoint" />
            <mxPoint x="397.5" y="1547" as="targetPoint" />
          </mxGeometry>
        </mxCell>
        <mxCell id="Yk9p62WfzjjRIQVWxF8m-63" value="" style="endArrow=none;html=1;rounded=0;entryX=0;entryY=0.5;entryDx=0;entryDy=0;" parent="WIyWlLk6GJQsqaUBKTNV-1" target="Yk9p62WfzjjRIQVWxF8m-47" edge="1">
          <mxGeometry width="50" height="50" relative="1" as="geometry">
            <mxPoint x="394.5" y="1547" as="sourcePoint" />
            <mxPoint x="604.5" y="1647" as="targetPoint" />
          </mxGeometry>
        </mxCell>
        <mxCell id="Yk9p62WfzjjRIQVWxF8m-64" value="" style="endArrow=classic;html=1;rounded=0;" parent="WIyWlLk6GJQsqaUBKTNV-1" edge="1">
          <mxGeometry width="50" height="50" relative="1" as="geometry">
            <mxPoint x="707.5" y="1791" as="sourcePoint" />
            <mxPoint x="597.5" y="1791" as="targetPoint" />
          </mxGeometry>
        </mxCell>
        <mxCell id="Yk9p62WfzjjRIQVWxF8m-65" value="" style="endArrow=classic;html=1;rounded=0;" parent="WIyWlLk6GJQsqaUBKTNV-1" edge="1">
          <mxGeometry width="50" height="50" relative="1" as="geometry">
            <mxPoint x="526.5" y="1861" as="sourcePoint" />
            <mxPoint x="396.5" y="1861" as="targetPoint" />
          </mxGeometry>
        </mxCell>
        <mxCell id="Yk9p62WfzjjRIQVWxF8m-66" value="" style="endArrow=classic;html=1;rounded=0;" parent="WIyWlLk6GJQsqaUBKTNV-1" edge="1">
          <mxGeometry width="50" height="50" relative="1" as="geometry">
            <mxPoint x="397.5" y="1637" as="sourcePoint" />
            <mxPoint x="397.5" y="1547" as="targetPoint" />
          </mxGeometry>
        </mxCell>
        <mxCell id="Yk9p62WfzjjRIQVWxF8m-67" value="" style="endArrow=none;html=1;rounded=0;exitX=1;exitY=0.5;exitDx=0;exitDy=0;" parent="WIyWlLk6GJQsqaUBKTNV-1" source="Yk9p62WfzjjRIQVWxF8m-47" edge="1">
          <mxGeometry width="50" height="50" relative="1" as="geometry">
            <mxPoint x="554.5" y="1697" as="sourcePoint" />
            <mxPoint x="784.5" y="1547" as="targetPoint" />
          </mxGeometry>
        </mxCell>
        <mxCell id="Yk9p62WfzjjRIQVWxF8m-68" value="" style="endArrow=none;html=1;rounded=0;" parent="WIyWlLk6GJQsqaUBKTNV-1" edge="1">
          <mxGeometry width="50" height="50" relative="1" as="geometry">
            <mxPoint x="784.5" y="1917" as="sourcePoint" />
            <mxPoint x="784.5" y="1547" as="targetPoint" />
          </mxGeometry>
        </mxCell>
        <mxCell id="Yk9p62WfzjjRIQVWxF8m-69" value="" style="endArrow=none;html=1;rounded=0;" parent="WIyWlLk6GJQsqaUBKTNV-1" edge="1">
          <mxGeometry width="50" height="50" relative="1" as="geometry">
            <mxPoint x="684.5" y="1917" as="sourcePoint" />
            <mxPoint x="784.5" y="1917" as="targetPoint" />
          </mxGeometry>
        </mxCell>
        <mxCell id="Yk9p62WfzjjRIQVWxF8m-70" value="" style="endArrow=classic;html=1;rounded=0;" parent="WIyWlLk6GJQsqaUBKTNV-1" edge="1">
          <mxGeometry width="50" height="50" relative="1" as="geometry">
            <mxPoint x="704.5" y="1917" as="sourcePoint" />
            <mxPoint x="594.5" y="1917" as="targetPoint" />
          </mxGeometry>
        </mxCell>
        <mxCell id="Yk9p62WfzjjRIQVWxF8m-71" value="i = 0, len(a3)" style="shape=hexagon;perimeter=hexagonPerimeter2;whiteSpace=wrap;html=1;fixedSize=1;" parent="WIyWlLk6GJQsqaUBKTNV-1" vertex="1">
          <mxGeometry x="534.5" y="2277" width="120" height="80" as="geometry" />
        </mxCell>
        <mxCell id="Yk9p62WfzjjRIQVWxF8m-72" value="a3[i][8] = s2" style="rhombus;whiteSpace=wrap;html=1;" parent="WIyWlLk6GJQsqaUBKTNV-1" vertex="1">
          <mxGeometry x="534.5" y="2387" width="120" height="90" as="geometry" />
        </mxCell>
        <mxCell id="Yk9p62WfzjjRIQVWxF8m-73" value="" style="endArrow=none;html=1;rounded=0;entryX=0.5;entryY=1;entryDx=0;entryDy=0;exitX=0.5;exitY=0;exitDx=0;exitDy=0;" parent="WIyWlLk6GJQsqaUBKTNV-1" source="Yk9p62WfzjjRIQVWxF8m-72" target="Yk9p62WfzjjRIQVWxF8m-71" edge="1">
          <mxGeometry width="50" height="50" relative="1" as="geometry">
            <mxPoint x="554.5" y="2467" as="sourcePoint" />
            <mxPoint x="604.5" y="2417" as="targetPoint" />
          </mxGeometry>
        </mxCell>
        <mxCell id="Yk9p62WfzjjRIQVWxF8m-74" value="" style="endArrow=classic;html=1;rounded=0;exitX=0;exitY=0.5;exitDx=0;exitDy=0;" parent="WIyWlLk6GJQsqaUBKTNV-1" source="Yk9p62WfzjjRIQVWxF8m-72" edge="1">
          <mxGeometry width="50" height="50" relative="1" as="geometry">
            <mxPoint x="554.5" y="2367" as="sourcePoint" />
            <mxPoint x="464.5" y="2432" as="targetPoint" />
          </mxGeometry>
        </mxCell>
        <mxCell id="Yk9p62WfzjjRIQVWxF8m-75" value="Да" style="text;html=1;align=center;verticalAlign=middle;whiteSpace=wrap;rounded=0;" parent="WIyWlLk6GJQsqaUBKTNV-1" vertex="1">
          <mxGeometry x="484.5" y="2407" width="60" height="30" as="geometry" />
        </mxCell>
        <mxCell id="Yk9p62WfzjjRIQVWxF8m-76" value="Нет" style="text;html=1;align=center;verticalAlign=middle;whiteSpace=wrap;rounded=0;" parent="WIyWlLk6GJQsqaUBKTNV-1" vertex="1">
          <mxGeometry x="644.5" y="2407" width="60" height="30" as="geometry" />
        </mxCell>
        <mxCell id="Yk9p62WfzjjRIQVWxF8m-77" value="" style="endArrow=none;html=1;rounded=0;exitX=1;exitY=0.5;exitDx=0;exitDy=0;" parent="WIyWlLk6GJQsqaUBKTNV-1" source="Yk9p62WfzjjRIQVWxF8m-72" edge="1">
          <mxGeometry width="50" height="50" relative="1" as="geometry">
            <mxPoint x="554.5" y="2367" as="sourcePoint" />
            <mxPoint x="734.5" y="2432" as="targetPoint" />
          </mxGeometry>
        </mxCell>
        <mxCell id="Yk9p62WfzjjRIQVWxF8m-78" value="count+=1" style="rounded=0;whiteSpace=wrap;html=1;" parent="WIyWlLk6GJQsqaUBKTNV-1" vertex="1">
          <mxGeometry x="425.5" y="2469" width="80" height="50" as="geometry" />
        </mxCell>
        <mxCell id="Yk9p62WfzjjRIQVWxF8m-79" value="" style="endArrow=none;html=1;rounded=0;exitX=0.5;exitY=0;exitDx=0;exitDy=0;" parent="WIyWlLk6GJQsqaUBKTNV-1" source="Yk9p62WfzjjRIQVWxF8m-78" edge="1">
          <mxGeometry width="50" height="50" relative="1" as="geometry">
            <mxPoint x="465.5" y="2472" as="sourcePoint" />
            <mxPoint x="465.5" y="2432" as="targetPoint" />
          </mxGeometry>
        </mxCell>
        <mxCell id="Yk9p62WfzjjRIQVWxF8m-80" value="" style="endArrow=none;html=1;rounded=0;" parent="WIyWlLk6GJQsqaUBKTNV-1" edge="1">
          <mxGeometry width="50" height="50" relative="1" as="geometry">
            <mxPoint x="734.5" y="2562" as="sourcePoint" />
            <mxPoint x="734.5" y="2432" as="targetPoint" />
          </mxGeometry>
        </mxCell>
        <mxCell id="Yk9p62WfzjjRIQVWxF8m-81" value="" style="endArrow=none;html=1;rounded=0;entryX=0.5;entryY=1;entryDx=0;entryDy=0;" parent="WIyWlLk6GJQsqaUBKTNV-1" edge="1">
          <mxGeometry width="50" height="50" relative="1" as="geometry">
            <mxPoint x="465.5" y="2559" as="sourcePoint" />
            <mxPoint x="465.5" y="2521" as="targetPoint" />
          </mxGeometry>
        </mxCell>
        <mxCell id="Yk9p62WfzjjRIQVWxF8m-82" value="" style="endArrow=none;html=1;rounded=0;" parent="WIyWlLk6GJQsqaUBKTNV-1" edge="1">
          <mxGeometry width="50" height="50" relative="1" as="geometry">
            <mxPoint x="464.5" y="2561" as="sourcePoint" />
            <mxPoint x="734.5" y="2561" as="targetPoint" />
          </mxGeometry>
        </mxCell>
        <mxCell id="Yk9p62WfzjjRIQVWxF8m-83" value="" style="endArrow=none;html=1;rounded=0;" parent="WIyWlLk6GJQsqaUBKTNV-1" edge="1">
          <mxGeometry width="50" height="50" relative="1" as="geometry">
            <mxPoint x="597.5" y="2632" as="sourcePoint" />
            <mxPoint x="597.5" y="2562" as="targetPoint" />
          </mxGeometry>
        </mxCell>
        <mxCell id="Yk9p62WfzjjRIQVWxF8m-84" value="" style="endArrow=none;html=1;rounded=0;" parent="WIyWlLk6GJQsqaUBKTNV-1" edge="1">
          <mxGeometry width="50" height="50" relative="1" as="geometry">
            <mxPoint x="397.5" y="2631" as="sourcePoint" />
            <mxPoint x="597.5" y="2631" as="targetPoint" />
          </mxGeometry>
        </mxCell>
        <mxCell id="Yk9p62WfzjjRIQVWxF8m-85" value="" style="endArrow=none;html=1;rounded=0;" parent="WIyWlLk6GJQsqaUBKTNV-1" edge="1">
          <mxGeometry width="50" height="50" relative="1" as="geometry">
            <mxPoint x="397.5" y="2632" as="sourcePoint" />
            <mxPoint x="397.5" y="2317" as="targetPoint" />
          </mxGeometry>
        </mxCell>
        <mxCell id="Yk9p62WfzjjRIQVWxF8m-86" value="" style="endArrow=none;html=1;rounded=0;entryX=0;entryY=0.5;entryDx=0;entryDy=0;" parent="WIyWlLk6GJQsqaUBKTNV-1" target="Yk9p62WfzjjRIQVWxF8m-71" edge="1">
          <mxGeometry width="50" height="50" relative="1" as="geometry">
            <mxPoint x="394.5" y="2317" as="sourcePoint" />
            <mxPoint x="604.5" y="2417" as="targetPoint" />
          </mxGeometry>
        </mxCell>
        <mxCell id="Yk9p62WfzjjRIQVWxF8m-87" value="" style="endArrow=classic;html=1;rounded=0;" parent="WIyWlLk6GJQsqaUBKTNV-1" edge="1">
          <mxGeometry width="50" height="50" relative="1" as="geometry">
            <mxPoint x="707.5" y="2561" as="sourcePoint" />
            <mxPoint x="597.5" y="2561" as="targetPoint" />
          </mxGeometry>
        </mxCell>
        <mxCell id="Yk9p62WfzjjRIQVWxF8m-88" value="" style="endArrow=classic;html=1;rounded=0;" parent="WIyWlLk6GJQsqaUBKTNV-1" edge="1">
          <mxGeometry width="50" height="50" relative="1" as="geometry">
            <mxPoint x="526.5" y="2631" as="sourcePoint" />
            <mxPoint x="396.5" y="2631" as="targetPoint" />
          </mxGeometry>
        </mxCell>
        <mxCell id="Yk9p62WfzjjRIQVWxF8m-89" value="" style="endArrow=classic;html=1;rounded=0;" parent="WIyWlLk6GJQsqaUBKTNV-1" edge="1">
          <mxGeometry width="50" height="50" relative="1" as="geometry">
            <mxPoint x="397.5" y="2407" as="sourcePoint" />
            <mxPoint x="397.5" y="2317" as="targetPoint" />
          </mxGeometry>
        </mxCell>
        <mxCell id="Yk9p62WfzjjRIQVWxF8m-90" value="" style="endArrow=none;html=1;rounded=0;exitX=1;exitY=0.5;exitDx=0;exitDy=0;" parent="WIyWlLk6GJQsqaUBKTNV-1" source="Yk9p62WfzjjRIQVWxF8m-71" edge="1">
          <mxGeometry width="50" height="50" relative="1" as="geometry">
            <mxPoint x="554.5" y="2467" as="sourcePoint" />
            <mxPoint x="784.5" y="2317" as="targetPoint" />
          </mxGeometry>
        </mxCell>
        <mxCell id="Yk9p62WfzjjRIQVWxF8m-91" value="" style="endArrow=none;html=1;rounded=0;" parent="WIyWlLk6GJQsqaUBKTNV-1" edge="1">
          <mxGeometry width="50" height="50" relative="1" as="geometry">
            <mxPoint x="784.5" y="2687" as="sourcePoint" />
            <mxPoint x="784.5" y="2317" as="targetPoint" />
          </mxGeometry>
        </mxCell>
        <mxCell id="Yk9p62WfzjjRIQVWxF8m-92" value="" style="endArrow=none;html=1;rounded=0;" parent="WIyWlLk6GJQsqaUBKTNV-1" edge="1">
          <mxGeometry width="50" height="50" relative="1" as="geometry">
            <mxPoint x="684.5" y="2687" as="sourcePoint" />
            <mxPoint x="784.5" y="2687" as="targetPoint" />
          </mxGeometry>
        </mxCell>
        <mxCell id="Yk9p62WfzjjRIQVWxF8m-93" value="" style="endArrow=classic;html=1;rounded=0;" parent="WIyWlLk6GJQsqaUBKTNV-1" edge="1">
          <mxGeometry width="50" height="50" relative="1" as="geometry">
            <mxPoint x="704.5" y="2687" as="sourcePoint" />
            <mxPoint x="600" y="2687" as="targetPoint" />
          </mxGeometry>
        </mxCell>
        <mxCell id="Yk9p62WfzjjRIQVWxF8m-95" value="count = 0" style="rounded=0;whiteSpace=wrap;html=1;" parent="WIyWlLk6GJQsqaUBKTNV-1" vertex="1">
          <mxGeometry x="543.51" y="2060" width="100" height="50" as="geometry" />
        </mxCell>
        <mxCell id="Yk9p62WfzjjRIQVWxF8m-97" value="" style="endArrow=none;html=1;rounded=0;" parent="WIyWlLk6GJQsqaUBKTNV-1" edge="1">
          <mxGeometry width="50" height="50" relative="1" as="geometry">
            <mxPoint x="600" y="2743" as="sourcePoint" />
            <mxPoint x="600" y="2687" as="targetPoint" />
          </mxGeometry>
        </mxCell>
        <mxCell id="Yk9p62WfzjjRIQVWxF8m-98" value="vakant = k - count" style="rounded=0;whiteSpace=wrap;html=1;" parent="WIyWlLk6GJQsqaUBKTNV-1" vertex="1">
          <mxGeometry x="539.5" y="2798" width="120" height="60" as="geometry" />
        </mxCell>
        <mxCell id="Yk9p62WfzjjRIQVWxF8m-100" value="vakant = 0" style="rhombus;whiteSpace=wrap;html=1;" parent="WIyWlLk6GJQsqaUBKTNV-1" vertex="1">
          <mxGeometry x="539.5" y="2889" width="120" height="90" as="geometry" />
        </mxCell>
        <mxCell id="Yk9p62WfzjjRIQVWxF8m-101" value="" style="endArrow=classic;html=1;rounded=0;exitX=0;exitY=0.5;exitDx=0;exitDy=0;" parent="WIyWlLk6GJQsqaUBKTNV-1" source="Yk9p62WfzjjRIQVWxF8m-100" edge="1">
          <mxGeometry width="50" height="50" relative="1" as="geometry">
            <mxPoint x="559.5" y="2869" as="sourcePoint" />
            <mxPoint x="469.5" y="2934" as="targetPoint" />
          </mxGeometry>
        </mxCell>
        <mxCell id="Yk9p62WfzjjRIQVWxF8m-102" value="Да" style="text;html=1;align=center;verticalAlign=middle;whiteSpace=wrap;rounded=0;" parent="WIyWlLk6GJQsqaUBKTNV-1" vertex="1">
          <mxGeometry x="489.5" y="2909" width="60" height="30" as="geometry" />
        </mxCell>
        <mxCell id="Yk9p62WfzjjRIQVWxF8m-103" value="Нет" style="text;html=1;align=center;verticalAlign=middle;whiteSpace=wrap;rounded=0;" parent="WIyWlLk6GJQsqaUBKTNV-1" vertex="1">
          <mxGeometry x="649.5" y="2909" width="60" height="30" as="geometry" />
        </mxCell>
        <mxCell id="Yk9p62WfzjjRIQVWxF8m-104" value="" style="endArrow=none;html=1;rounded=0;exitX=1;exitY=0.5;exitDx=0;exitDy=0;" parent="WIyWlLk6GJQsqaUBKTNV-1" source="Yk9p62WfzjjRIQVWxF8m-100" edge="1">
          <mxGeometry width="50" height="50" relative="1" as="geometry">
            <mxPoint x="559.5" y="2869" as="sourcePoint" />
            <mxPoint x="739.5" y="2934" as="targetPoint" />
          </mxGeometry>
        </mxCell>
        <mxCell id="Yk9p62WfzjjRIQVWxF8m-105" value="count+=1" style="rounded=0;whiteSpace=wrap;html=1;" parent="WIyWlLk6GJQsqaUBKTNV-1" vertex="1">
          <mxGeometry x="430.5" y="2971" width="80" height="50" as="geometry" />
        </mxCell>
        <mxCell id="Yk9p62WfzjjRIQVWxF8m-106" value="" style="endArrow=none;html=1;rounded=0;exitX=0.5;exitY=0;exitDx=0;exitDy=0;" parent="WIyWlLk6GJQsqaUBKTNV-1" source="Yk9p62WfzjjRIQVWxF8m-105" edge="1">
          <mxGeometry width="50" height="50" relative="1" as="geometry">
            <mxPoint x="470.5" y="2974" as="sourcePoint" />
            <mxPoint x="470.5" y="2934" as="targetPoint" />
          </mxGeometry>
        </mxCell>
        <mxCell id="Yk9p62WfzjjRIQVWxF8m-107" value="" style="endArrow=none;html=1;rounded=0;" parent="WIyWlLk6GJQsqaUBKTNV-1" edge="1">
          <mxGeometry width="50" height="50" relative="1" as="geometry">
            <mxPoint x="739.5" y="3064" as="sourcePoint" />
            <mxPoint x="739.5" y="2934" as="targetPoint" />
          </mxGeometry>
        </mxCell>
        <mxCell id="Yk9p62WfzjjRIQVWxF8m-108" value="" style="endArrow=none;html=1;rounded=0;entryX=0.5;entryY=1;entryDx=0;entryDy=0;" parent="WIyWlLk6GJQsqaUBKTNV-1" edge="1">
          <mxGeometry width="50" height="50" relative="1" as="geometry">
            <mxPoint x="470.5" y="3061" as="sourcePoint" />
            <mxPoint x="470.5" y="3023" as="targetPoint" />
          </mxGeometry>
        </mxCell>
        <mxCell id="Yk9p62WfzjjRIQVWxF8m-109" value="" style="endArrow=none;html=1;rounded=0;" parent="WIyWlLk6GJQsqaUBKTNV-1" edge="1">
          <mxGeometry width="50" height="50" relative="1" as="geometry">
            <mxPoint x="469.5" y="3063" as="sourcePoint" />
            <mxPoint x="739.5" y="3063" as="targetPoint" />
          </mxGeometry>
        </mxCell>
        <mxCell id="Yk9p62WfzjjRIQVWxF8m-110" value="" style="endArrow=classic;html=1;rounded=0;" parent="WIyWlLk6GJQsqaUBKTNV-1" edge="1">
          <mxGeometry width="50" height="50" relative="1" as="geometry">
            <mxPoint x="712.5" y="3063" as="sourcePoint" />
            <mxPoint x="602.5" y="3063" as="targetPoint" />
          </mxGeometry>
        </mxCell>
        <mxCell id="Yk9p62WfzjjRIQVWxF8m-112" value="" style="endArrow=none;html=1;rounded=0;entryX=0.5;entryY=1;entryDx=0;entryDy=0;exitX=0.5;exitY=0;exitDx=0;exitDy=0;" parent="WIyWlLk6GJQsqaUBKTNV-1" source="Yk9p62WfzjjRIQVWxF8m-100" target="Yk9p62WfzjjRIQVWxF8m-98" edge="1">
          <mxGeometry width="50" height="50" relative="1" as="geometry">
            <mxPoint x="730" y="2976" as="sourcePoint" />
            <mxPoint x="780" y="2926" as="targetPoint" />
          </mxGeometry>
        </mxCell>
        <mxCell id="Yk9p62WfzjjRIQVWxF8m-113" value="Закрытие файла&lt;div&gt;file_staff&lt;/div&gt;" style="rounded=0;whiteSpace=wrap;html=1;" parent="WIyWlLk6GJQsqaUBKTNV-1" vertex="1">
          <mxGeometry x="540" y="2708" width="120" height="60" as="geometry" />
        </mxCell>
        <mxCell id="Yk9p62WfzjjRIQVWxF8m-114" value="" style="endArrow=none;html=1;rounded=0;entryX=0.5;entryY=1;entryDx=0;entryDy=0;exitX=0.5;exitY=0;exitDx=0;exitDy=0;" parent="WIyWlLk6GJQsqaUBKTNV-1" source="Yk9p62WfzjjRIQVWxF8m-98" target="Yk9p62WfzjjRIQVWxF8m-113" edge="1">
          <mxGeometry width="50" height="50" relative="1" as="geometry">
            <mxPoint x="730" y="3013" as="sourcePoint" />
            <mxPoint x="780" y="2963" as="targetPoint" />
          </mxGeometry>
        </mxCell>
        <mxCell id="Yk9p62WfzjjRIQVWxF8m-115" value="Печать &quot;Нет вакантный мест&quot;" style="shape=document;whiteSpace=wrap;html=1;boundedLbl=1;" parent="WIyWlLk6GJQsqaUBKTNV-1" vertex="1">
          <mxGeometry x="410.5" y="2971" width="120" height="80" as="geometry" />
        </mxCell>
        <mxCell id="Yk9p62WfzjjRIQVWxF8m-127" value="Печать &quot;Вакантные места в предприятии: {vakant} &quot;" style="shape=document;whiteSpace=wrap;html=1;boundedLbl=1;" parent="WIyWlLk6GJQsqaUBKTNV-1" vertex="1">
          <mxGeometry x="678" y="2963" width="127" height="80" as="geometry" />
        </mxCell>
        <mxCell id="Yk9p62WfzjjRIQVWxF8m-128" value="" style="endArrow=none;html=1;rounded=0;" parent="WIyWlLk6GJQsqaUBKTNV-1" edge="1">
          <mxGeometry width="50" height="50" relative="1" as="geometry">
            <mxPoint x="602" y="3112" as="sourcePoint" />
            <mxPoint x="602" y="3062" as="targetPoint" />
          </mxGeometry>
        </mxCell>
        <mxCell id="Yk9p62WfzjjRIQVWxF8m-129" value="Конец" style="rounded=1;whiteSpace=wrap;html=1;" parent="WIyWlLk6GJQsqaUBKTNV-1" vertex="1">
          <mxGeometry x="544.5" y="3113" width="120" height="60" as="geometry" />
        </mxCell>
        <mxCell id="jP7nsbJxhhtGwmHd_9V1-0" value="Закрытие файла file_post" style="rounded=0;whiteSpace=wrap;html=1;" parent="WIyWlLk6GJQsqaUBKTNV-1" vertex="1">
          <mxGeometry x="545" y="1411" width="100" height="60" as="geometry" />
        </mxCell>
        <mxCell id="jP7nsbJxhhtGwmHd_9V1-3" value="" style="endArrow=none;html=1;rounded=0;entryX=0.5;entryY=1;entryDx=0;entryDy=0;exitX=0.5;exitY=0;exitDx=0;exitDy=0;" parent="WIyWlLk6GJQsqaUBKTNV-1" source="Yk9p62WfzjjRIQVWxF8m-47" target="jP7nsbJxhhtGwmHd_9V1-0" edge="1">
          <mxGeometry width="50" height="50" relative="1" as="geometry">
            <mxPoint x="505" y="1561" as="sourcePoint" />
            <mxPoint x="555" y="1511" as="targetPoint" />
          </mxGeometry>
        </mxCell>
        <mxCell id="jP7nsbJxhhtGwmHd_9V1-4" value="Закрытие файла&amp;nbsp;&lt;span style=&quot;background-color: transparent; color: light-dark(rgb(0, 0, 0), rgb(255, 255, 255));&quot;&gt;file_schedule&lt;/span&gt;&lt;div&gt;&lt;br&gt;&lt;/div&gt;" style="rounded=0;whiteSpace=wrap;html=1;" parent="WIyWlLk6GJQsqaUBKTNV-1" vertex="1">
          <mxGeometry x="534.88" y="1955" width="117.25" height="60" as="geometry" />
        </mxCell>
        <mxCell id="jP7nsbJxhhtGwmHd_9V1-6" value="" style="endArrow=none;html=1;rounded=0;" parent="WIyWlLk6GJQsqaUBKTNV-1" edge="1">
          <mxGeometry width="50" height="50" relative="1" as="geometry">
            <mxPoint x="596" y="1955" as="sourcePoint" />
            <mxPoint x="596" y="1917" as="targetPoint" />
          </mxGeometry>
        </mxCell>
        <mxCell id="_wDK1iYwMhuGm5sT3Ww--1" value="" style="endArrow=none;html=1;rounded=0;" edge="1" parent="WIyWlLk6GJQsqaUBKTNV-1" target="_wDK1iYwMhuGm5sT3Ww--0">
          <mxGeometry width="50" height="50" relative="1" as="geometry">
            <mxPoint x="595" y="1262" as="sourcePoint" />
            <mxPoint x="595" y="1224" as="targetPoint" />
          </mxGeometry>
        </mxCell>
        <mxCell id="_wDK1iYwMhuGm5sT3Ww--0" value="A" style="ellipse;whiteSpace=wrap;html=1;aspect=fixed;" vertex="1" parent="WIyWlLk6GJQsqaUBKTNV-1">
          <mxGeometry x="571" y="1238" width="47" height="47" as="geometry" />
        </mxCell>
        <mxCell id="_wDK1iYwMhuGm5sT3Ww--2" value="A" style="ellipse;whiteSpace=wrap;html=1;aspect=fixed;" vertex="1" parent="WIyWlLk6GJQsqaUBKTNV-1">
          <mxGeometry x="572" y="1345" width="47" height="47" as="geometry" />
        </mxCell>
        <mxCell id="_wDK1iYwMhuGm5sT3Ww--3" value="" style="endArrow=none;html=1;rounded=0;entryX=0.5;entryY=1;entryDx=0;entryDy=0;exitX=0.5;exitY=0;exitDx=0;exitDy=0;" edge="1" parent="WIyWlLk6GJQsqaUBKTNV-1" source="Yk9p62WfzjjRIQVWxF8m-95" target="jP7nsbJxhhtGwmHd_9V1-4">
          <mxGeometry width="50" height="50" relative="1" as="geometry">
            <mxPoint x="634" y="2093" as="sourcePoint" />
            <mxPoint x="684" y="2043" as="targetPoint" />
          </mxGeometry>
        </mxCell>
        <mxCell id="_wDK1iYwMhuGm5sT3Ww--5" value="" style="endArrow=none;html=1;rounded=0;entryX=0.5;entryY=1;entryDx=0;entryDy=0;exitX=0.5;exitY=0;exitDx=0;exitDy=0;" edge="1" parent="WIyWlLk6GJQsqaUBKTNV-1" source="jP7nsbJxhhtGwmHd_9V1-0" target="_wDK1iYwMhuGm5sT3Ww--2">
          <mxGeometry width="50" height="50" relative="1" as="geometry">
            <mxPoint x="634" y="1538" as="sourcePoint" />
            <mxPoint x="684" y="1488" as="targetPoint" />
          </mxGeometry>
        </mxCell>
        <mxCell id="_wDK1iYwMhuGm5sT3Ww--6" value="B" style="ellipse;whiteSpace=wrap;html=1;aspect=fixed;" vertex="1" parent="WIyWlLk6GJQsqaUBKTNV-1">
          <mxGeometry x="570.01" y="2150" width="47" height="47" as="geometry" />
        </mxCell>
        <mxCell id="_wDK1iYwMhuGm5sT3Ww--7" value="" style="endArrow=none;html=1;rounded=0;entryX=0.5;entryY=1;entryDx=0;entryDy=0;exitX=0.5;exitY=0;exitDx=0;exitDy=0;" edge="1" parent="WIyWlLk6GJQsqaUBKTNV-1" source="_wDK1iYwMhuGm5sT3Ww--6" target="Yk9p62WfzjjRIQVWxF8m-95">
          <mxGeometry width="50" height="50" relative="1" as="geometry">
            <mxPoint x="634" y="1992" as="sourcePoint" />
            <mxPoint x="684" y="1942" as="targetPoint" />
          </mxGeometry>
        </mxCell>
        <mxCell id="_wDK1iYwMhuGm5sT3Ww--8" value="B" style="ellipse;whiteSpace=wrap;html=1;aspect=fixed;" vertex="1" parent="WIyWlLk6GJQsqaUBKTNV-1">
          <mxGeometry x="571" y="2207" width="47" height="47" as="geometry" />
        </mxCell>
        <mxCell id="_wDK1iYwMhuGm5sT3Ww--9" value="" style="endArrow=none;html=1;rounded=0;exitX=0.5;exitY=0;exitDx=0;exitDy=0;entryX=0.5;entryY=1;entryDx=0;entryDy=0;" edge="1" parent="WIyWlLk6GJQsqaUBKTNV-1" source="Yk9p62WfzjjRIQVWxF8m-71" target="_wDK1iYwMhuGm5sT3Ww--8">
          <mxGeometry width="50" height="50" relative="1" as="geometry">
            <mxPoint x="634" y="2344" as="sourcePoint" />
            <mxPoint x="684" y="2294" as="targetPoint" />
          </mxGeometry>
        </mxCell>
      </root>
    </mxGraphModel>
  </diagram>
</mxfile>
